<svg xmlns="http://www.w3.org/2000/svg" xmlns:xlink="http://www.w3.org/1999/xlink" width="16" height="16"><style>use{display:none}use:target{display:block}.white{fill:#fff}.black{fill:#000}.mirror{-webkit-transform-origin:center;transform-origin:center;-webkit-transform:rotateY(180deg);transform:rotateY(180deg)}</style><symbol id="symbol-search"><path d="M9.6 8.89a4.47 4.47 0 0 0 1-2.83 4.56 4.56 0 1 0-4.56 4.56 4.47 4.47 0 0 0 2.83-1l4.26 4.25.7-.7zm-3.54.73a3.56 3.56 0 1 1 3.56-3.56 3.57 3.57 0 0 1-3.56 3.56z"/></symbol><symbol id="symbol-caret"><path d="M7.782 9.356l-4.44-4.111-.75.694 5.19 4.805 5.19-4.805-.749-.694z"/></symbol><symbol id="symbol-dash"><path d="M2 7h10v1H2z"/></symbol><symbol id="symbol-on"><path d="M6.68 14.28L1.14 8.74l.7-.71 4.69 4.69 7.5-10.92.82.57-8.17 11.91z"/></symbol><use id="css-search" xlink:href="#symbol-search" class="black"/><use id="css-search-rtl" xlink:href="#symbol-search" class="black mirror"/><use id="css-search-white" xlink:href="#symbol-search" class="white"/><use id="css-search-white-rtl" xlink:href="#symbol-search" class="white mirror"/><use id="css-search-black" xlink:href="#symbol-search" class="black"/><use id="css-search-black-rtl" xlink:href="#symbol-search" class="black mirror"/><use id="css-caret" xlink:href="#symbol-caret" class="black"/><use id="css-caret-close" xlink:href="#symbol-caret" class="black" style="-webkit-transform:rotateZ(180deg);-webkit-transform-origin:center;transform-origin:center"/><use id="css-greater" xlink:href="#symbol-caret" class="black" style="-webkit-transform:rotateZ(-90deg);-webkit-transform-origin:center;transform-origin:center"/><use id="css-lesser" xlink:href="#symbol-caret" class="black" style="-webkit-transform:rotateZ(90deg);-webkit-transform-origin:center;transform-origin:center"/><use id="css-dash" xlink:href="#symbol-dash" class="black" opacity=".3"/><use id="css-on" xlink:href="#symbol-on" class="white"/></svg>